{
  "source": "C:\\Users\\Peter\\Desktop\\stuff\\MIUN\\quantitative_research\\video_compression\\videos\\UVG\\Bosphorus_1920x1080_120fps_420_8bit_YUV.y4m",
  "output": "C:\\Users\\Peter\\Desktop\\stuff\\MIUN\\quantitative_research\\video_compression\\compressed_videos\\UVG\\av1\\1\\Bosphorus_1920x1080_120fps_420_8bit_YUV_av1.mkv",
  "codec": "av1",
  "ok": "[yuv4mpegpipe @ 000001eaad2a5380] Stream #0: not enough frames to estimate rate; consider increasing probesize\nInput #0, yuv4mpegpipe, from 'C:\\Users\\Peter\\Desktop\\stuff\\MIUN\\quantitative_research\\video_compression\\videos\\UVG\\Bosphorus_1920x1080_120fps_420_8bit_YUV.y4m':\n  Duration: 00:00:05.00, start: 0.000000, bitrate: 2985989 kb/s\n  Stream #0:0: Video: rawvideo (I420 / 0x30323449), yuv420p(progressive), 1920x1080, 120 fps, 120 tbr, 120 tbn\n[out#0/matroska @ 000001eaad2a90c0] Codec AVOption b:a (set bitrate (in bits/s)) has not been used for any stream. The most likely reason is either wrong type (e.g. a video option with no video streams) or that it is a private option of some decoder which was not actually used for any stream.\nStream mapping:\n  Stream #0:0 -> #0:0 (rawvideo (native) -> av1 (libsvtav1))\nPress [q] to stop, [?] for help\nSvt[info]: -------------------------------------------\nSvt[info]: SVT [version]:\tSVT-AV1 Encoder Lib v3.1.0-19-g6ecfe8ec\nSvt[info]: SVT [build]  :\tGCC 15.2.0\t 64 bit\nSvt[info]: LIB Build date: Aug 17 2025 11:37:13\nSvt[info]: -------------------------------------------\n[libsvtav1 @ 000001eaad2ac1c0] Specified chroma sample location center is unsupported on the AV1 bit stream level. Usage of a container that allows passing this information - such as Matroska - is recommended.\nSvt[info]: Level of Parallelism: 5\nSvt[info]: Number of PPCS 93\nSvt[info]: [asm level on system : up to avx2]\nSvt[info]: [asm level selected : up to avx2]\nSvt[info]: -------------------------------------------\nSvt[info]: SVT [config]: main profile\ttier (auto)\tlevel (auto)\nSvt[info]: SVT [config]: width / height / fps numerator / fps denominator \t\t: 1920 / 1080 / 120 / 1\nSvt[info]: SVT [config]: bit-depth / color format \t\t\t\t\t: 8 / YUV420\nSvt[info]: SVT [config]: preset / tune / pred struct \t\t\t\t\t: 4 / PSNR / random access\nSvt[info]: SVT [config]: gop size / mini-gop size / key-frame type \t\t\t: 641 / 16 / key frame\nSvt[info]: SVT [config]: BRC mode / target bitrate (kbps)\t\t\t\t: VBR / 1000 \nSvt[info]: SVT [config]: AQ mode / Variance Boost \t\t\t\t\t: 2 / 0\nSvt[info]: SVT [config]: sharpness / luminance-based QP bias \t\t\t\t: 0 / 0\nSvt[info]: SVT [config]: QP scale compress strength \t\t\t\t\t: 0\nSvt[info]: -------------------------------------------\nOutput #0, matroska, to 'C:\\Users\\Peter\\Desktop\\stuff\\MIUN\\quantitative_research\\video_compression\\compressed_videos\\UVG\\av1\\1\\Bosphorus_1920x1080_120fps_420_8bit_YUV_av1.mkv':\n  Metadata:\n    encoder         : Lavf62.3.100\n  Stream #0:0: Video: av1 (AV01 / 0x31305641), yuv420p(tv, progressive), 1920x1080, q=2-31, 1000 kb/s, 120 fps, 1k tbn\n    Metadata:\n      encoder         : Lavc62.11.100 libsvtav1\n    Side data:\n      cpb: bitrate max/min/avg: 0/0/1000000 buffer size: 1000000 vbv_delay: N/A\nframe=    0 fps=0.0 q=0.0 size=       0KiB time=N/A bitrate=N/A speed=N/A elapsed=0:00:00.52    \nframe=    0 fps=0.0 q=0.0 size=       0KiB time=N/A bitrate=N/A speed=N/A elapsed=0:00:01.25    \nframe=    0 fps=0.0 q=0.0 size=       0KiB time=N/A bitrate=N/A speed=N/A elapsed=0:00:01.82    \nframe=    0 fps=0.0 q=0.0 size=       0KiB time=N/A bitrate=N/A speed=N/A elapsed=0:00:02.35    \nframe=    0 fps=0.0 q=0.0 size=       0KiB time=N/A bitrate=N/A speed=N/A elapsed=0:00:02.94    \nframe=    0 fps=0.0 q=0.0 size=       0KiB time=N/A bitrate=N/A speed=N/A elapsed=0:00:03.48    \nframe=    0 fps=0.0 q=0.0 size=       0KiB time=N/A bitrate=N/A speed=N/A elapsed=0:00:04.02    \nframe=    0 fps=0.0 q=0.0 size=       0KiB time=N/A bitrate=N/A speed=N/A elapsed=0:00:04.54    \nframe=    0 fps=0.0 q=0.0 size=       0KiB time=N/A bitrate=N/A speed=N/A elapsed=0:00:05.29    \nframe=    0 fps=0.0 q=0.0 size=       0KiB time=N/A bitrate=N/A speed=N/A elapsed=0:00:06.00    \nframe=    0 fps=0.0 q=0.0 size=       0KiB time=N/A bitrate=N/A speed=N/A elapsed=0:00:06.94    \nframe=    0 fps=0.0 q=0.0 size=       0KiB time=N/A bitrate=N/A speed=N/A elapsed=0:00:07.56    \nframe=    0 fps=0.0 q=0.0 size=       0KiB time=N/A bitrate=N/A speed=N/A elapsed=0:00:08.08    \nframe=    0 fps=0.0 q=0.0 size=       0KiB time=N/A bitrate=N/A speed=N/A elapsed=0:00:08.59    \nframe=    1 fps=0.1 q=36.0 size=       1KiB time=00:00:00.00 bitrate=N/A speed=   0x elapsed=0:00:09.11    \nframe=    1 fps=0.1 q=36.0 size=       1KiB time=00:00:00.00 bitrate=N/A speed=   0x elapsed=0:00:09.62    \nframe=    1 fps=0.1 q=36.0 size=       1KiB time=00:00:00.00 bitrate=N/A speed=   0x elapsed=0:00:10.13    \nframe=    1 fps=0.1 q=36.0 size=       1KiB time=00:00:00.00 bitrate=N/A speed=   0x elapsed=0:00:10.65    \nframe=    3 fps=0.3 q=59.0 size=       1KiB time=00:00:00.01 bitrate= 268.8kbits/s speed=0.00149x elapsed=0:00:11.18    \nframe=    6 fps=0.5 q=58.0 size=       1KiB time=00:00:00.04 bitrate= 107.5kbits/s speed=0.00356x elapsed=0:00:11.69    \nframe=    8 fps=0.7 q=58.0 size=       1KiB time=00:00:00.05 bitrate=  76.8kbits/s speed=0.00478x elapsed=0:00:12.20    \nframe=   10 fps=0.8 q=57.0 size=       1KiB time=00:00:00.07 bitrate=  59.7kbits/s speed=0.0059x elapsed=0:00:12.71    \nframe=   14 fps=1.1 q=55.0 size=       1KiB time=00:00:00.10 bitrate=  41.4kbits/s speed=0.00818x elapsed=0:00:13.24    \nframe=   14 fps=1.0 q=55.0 size=       1KiB time=00:00:00.10 bitrate=  41.4kbits/s speed=0.00787x elapsed=0:00:13.77    \nframe=   15 fps=1.0 q=56.0 size=       1KiB time=00:00:00.11 bitrate=  38.4kbits/s speed=0.00817x elapsed=0:00:14.28    \nframe=   15 fps=1.0 q=56.0 size=       1KiB time=00:00:00.11 bitrate=  38.4kbits/s speed=0.00789x elapsed=0:00:14.79    \nframe=   16 fps=1.0 q=55.0 size=       1KiB time=00:00:00.12 bitrate=  35.8kbits/s speed=0.00816x elapsed=0:00:15.31    \nframe=   18 fps=1.1 q=53.0 size=       1KiB time=00:00:00.14 bitrate=  31.6kbits/s speed=0.00895x elapsed=0:00:15.83    \nframe=   20 fps=1.2 q=52.0 size=       1KiB time=00:00:00.15 bitrate=  28.3kbits/s speed=0.00969x elapsed=0:00:16.34    \nframe=   22 fps=1.3 q=52.0 size=       1KiB time=00:00:00.17 bitrate=  25.6kbits/s speed=0.0104x elapsed=0:00:16.86    \nframe=   22 fps=1.3 q=52.0 size=       1KiB time=00:00:00.17 bitrate=  25.6kbits/s speed=0.0101x elapsed=0:00:17.36    \nframe=   23 fps=1.3 q=53.0 size=       1KiB time=00:00:00.18 bitrate=  24.4kbits/s speed=0.0103x elapsed=0:00:17.88    \nframe=   23 fps=1.2 q=53.0 size=       1KiB time=00:00:00.18 bitrate=  24.4kbits/s speed=0.00996x elapsed=0:00:18.40    \nframe=   24 fps=1.3 q=52.0 size=       1KiB time=00:00:00.19 bitrate=  23.4kbits/s speed=0.0101x elapsed=0:00:18.92    \nframe=   26 fps=1.3 q=50.0 size=       1KiB time=00:00:00.20 bitrate=  21.5kbits/s speed=0.0107x elapsed=0:00:19.44    \nframe=   26 fps=1.3 q=50.0 size=       1KiB time=00:00:00.20 bitrate=  21.5kbits/s speed=0.0104x elapsed=0:00:19.95    \nframe=   29 fps=1.4 q=52.0 size=       1KiB time=00:00:00.23 bitrate=  19.2kbits/s speed=0.0114x elapsed=0:00:20.46    \nframe=   30 fps=1.4 q=49.0 size=       1KiB time=00:00:00.24 bitrate=  18.5kbits/s speed=0.0115x elapsed=0:00:20.98    \nframe=   31 fps=1.4 q=50.0 size=       1KiB time=00:00:00.25 bitrate=  17.9kbits/s speed=0.0116x elapsed=0:00:21.50    \nframe=   32 fps=1.5 q=50.0 size=       1KiB time=00:00:00.25 bitrate=  17.3kbits/s speed=0.0117x elapsed=0:00:22.02    \nframe=   34 fps=1.5 q=46.0 size=       1KiB time=00:00:00.27 bitrate=  16.3kbits/s speed=0.0122x elapsed=0:00:22.54    \nframe=   36 fps=1.6 q=45.0 size=       1KiB time=00:00:00.29 bitrate=  15.4kbits/s speed=0.0126x elapsed=0:00:23.06    \nframe=   38 fps=1.6 q=44.0 size=       1KiB time=00:00:00.30 bitrate=  14.5kbits/s speed=0.0131x elapsed=0:00:23.57    \nframe=   39 fps=1.6 q=46.0 size=       1KiB time=00:00:00.31 bitrate=  14.1kbits/s speed=0.0131x elapsed=0:00:24.08    \nframe=   40 fps=1.6 q=44.0 size=       1KiB time=00:00:00.32 bitrate=  13.8kbits/s speed=0.0132x elapsed=0:00:24.61    \nframe=   40 fps=1.6 q=44.0 size=       1KiB time=00:00:00.32 bitrate=  13.8kbits/s speed=0.0129x elapsed=0:00:25.12    \nframe=   40 fps=1.6 q=44.0 size=       1KiB time=00:00:00.32 bitrate=  13.8kbits/s speed=0.0127x elapsed=0:00:25.63    \nframe=   41 fps=1.6 q=48.0 size=       1KiB time=00:00:00.33 bitrate=  13.4kbits/s speed=0.0127x elapsed=0:00:26.15    \nframe=   42 fps=1.6 q=43.0 size=       1KiB time=00:00:00.34 bitrate=  13.1kbits/s speed=0.0128x elapsed=0:00:26.66    \nframe=   43 fps=1.6 q=45.0 size=       1KiB time=00:00:00.35 bitrate=  12.8kbits/s speed=0.0129x elapsed=0:00:27.18    \nframe=   43 fps=1.6 q=45.0 size=       1KiB time=00:00:00.35 bitrate=  12.8kbits/s speed=0.0126x elapsed=0:00:27.70    \nframe=   45 fps=1.6 q=50.0 size=       1KiB time=00:00:00.36 bitrate=  12.2kbits/s speed=0.013x elapsed=0:00:28.21    \nframe=   47 fps=1.6 q=47.0 size=       1KiB time=00:00:00.38 bitrate=  11.7kbits/s speed=0.0133x elapsed=0:00:28.73    \nframe=   47 fps=1.6 q=47.0 size=       1KiB time=00:00:00.38 bitrate=  11.7kbits/s speed=0.0131x elapsed=0:00:29.24    \nframe=   49 fps=1.6 q=39.0 size=       1KiB time=00:00:00.40 bitrate=  11.2kbits/s speed=0.0134x elapsed=0:00:29.77    \nframe=   50 fps=1.7 q=46.0 size=       1KiB time=00:00:00.40 bitrate=  11.0kbits/s speed=0.0135x elapsed=0:00:30.27    \nframe=   50 fps=1.6 q=46.0 size=       1KiB time=00:00:00.40 bitrate=  11.0kbits/s speed=0.0133x elapsed=0:00:30.79    \nframe=   52 fps=1.7 q=42.0 size=       1KiB time=00:00:00.42 bitrate=  10.5kbits/s speed=0.0136x elapsed=0:00:31.32    \nframe=   52 fps=1.6 q=42.0 size=       1KiB time=00:00:00.42 bitrate=  10.5kbits/s speed=0.0134x elapsed=0:00:31.82    \nframe=   53 fps=1.6 q=49.0 size=       1KiB time=00:00:00.43 bitrate=  10.3kbits/s speed=0.0134x elapsed=0:00:32.34    \nframe=   54 fps=1.6 q=42.0 size=       1KiB time=00:00:00.44 bitrate=  10.1kbits/s speed=0.0134x elapsed=0:00:32.85    \nframe=   55 fps=1.6 q=45.0 size=       1KiB time=00:00:00.45 bitrate=  10.0kbits/s speed=0.0135x elapsed=0:00:33.36    \nframe=   55 fps=1.6 q=45.0 size=       1KiB time=00:00:00.45 bitrate=  10.0kbits/s speed=0.0133x elapsed=0:00:33.89    \nframe=   57 fps=1.7 q=47.0 size=       1KiB time=00:00:00.46 bitrate=   9.6kbits/s speed=0.0136x elapsed=0:00:34.40    \nframe=   58 fps=1.7 q=44.0 size=       1KiB time=00:00:00.47 bitrate=   9.4kbits/s speed=0.0136x elapsed=0:00:34.92    \nframe=   60 fps=1.7 q=42.0 size=       1KiB time=00:00:00.49 bitrate=   9.1kbits/s speed=0.0139x elapsed=0:00:35.44    \nframe=   61 fps=1.7 q=49.0 size=       1KiB time=00:00:00.50 bitrate=   9.0kbits/s speed=0.0139x elapsed=0:00:35.96    \nframe=   63 fps=1.7 q=46.0 size=       1KiB time=00:00:00.51 bitrate=   8.7kbits/s speed=0.0142x elapsed=0:00:36.46    \nframe=   64 fps=1.7 q=46.0 size=       1KiB time=00:00:00.52 bitrate=   8.5kbits/s speed=0.0142x elapsed=0:00:36.99    \nframe=   65 fps=1.7 q=38.0 size=       1KiB time=00:00:00.53 bitrate=   8.4kbits/s speed=0.0142x elapsed=0:00:37.50    \nframe=   66 fps=1.7 q=44.0 size=       1KiB time=00:00:00.54 bitrate=   8.3kbits/s speed=0.0142x elapsed=0:00:38.01    \nframe=   67 fps=1.7 q=44.0 size=       1KiB time=00:00:00.55 bitrate=   8.1kbits/s speed=0.0143x elapsed=0:00:38.53    \nframe=   68 fps=1.7 q=41.0 size=       1KiB time=00:00:00.55 bitrate=   8.0kbits/s speed=0.0143x elapsed=0:00:39.04    \nframe=   68 fps=1.7 q=41.0 size=       1KiB time=00:00:00.55 bitrate=   8.0kbits/s speed=0.0141x elapsed=0:00:39.56    \nframe=   69 fps=1.7 q=48.0 size=       1KiB time=00:00:00.56 bitrate=   7.9kbits/s speed=0.0141x elapsed=0:00:40.08    \nframe=   70 fps=1.7 q=41.0 size=       1KiB time=00:00:00.57 bitrate=   7.8kbits/s speed=0.0142x elapsed=0:00:40.59    \nframe=   70 fps=1.7 q=41.0 size=       1KiB time=00:00:00.57 bitrate=   7.8kbits/s speed=0.014x elapsed=0:00:41.11    \nframe=   70 fps=1.7 q=41.0 size=       1KiB time=00:00:00.57 bitrate=   7.8kbits/s speed=0.0138x elapsed=0:00:41.62    \nframe=   71 fps=1.7 q=44.0 size=       1KiB time=00:00:00.58 bitrate=   7.7kbits/s speed=0.0138x elapsed=0:00:42.14    \nframe=   72 fps=1.7 q=43.0 size=       1KiB time=00:00:00.59 bitrate=   7.6kbits/s speed=0.0139x elapsed=0:00:42.65    \nframe=   74 fps=1.7 q=42.0 size=       1KiB time=00:00:00.60 bitrate=   7.4kbits/s speed=0.0141x elapsed=0:00:43.16    \nframe=   75 fps=1.7 q=46.0 size=       1KiB time=00:00:00.61 bitrate=   7.3kbits/s speed=0.0141x elapsed=0:00:43.68    \nframe=   76 fps=1.7 q=42.0 size=       1KiB time=00:00:00.62 bitrate=   7.2kbits/s speed=0.0141x elapsed=0:00:44.21    \nframe=   77 fps=1.7 q=48.0 size=       1KiB time=00:00:00.63 bitrate=   7.1kbits/s speed=0.0142x elapsed=0:00:44.71    \nframe=   79 fps=1.7 q=45.0 size=       1KiB time=00:00:00.65 bitrate=   6.9kbits/s speed=0.0144x elapsed=0:00:45.23    \nframe=   79 fps=1.7 q=45.0 size=       1KiB time=00:00:00.65 bitrate=   6.9kbits/s speed=0.0142x elapsed=0:00:45.75    \nframe=   79 fps=1.7 q=45.0 size=       1KiB time=00:00:00.65 bitrate=   6.9kbits/s speed=0.0141x elapsed=0:00:46.25    \nframe=   80 fps=1.7 q=45.0 size=       1KiB time=00:00:00.65 bitrate=   6.8kbits/s speed=0.0141x elapsed=0:00:46.78    \nframe=   81 fps=1.7 q=38.0 size=       1KiB time=00:00:00.66 bitrate=   6.7kbits/s speed=0.0141x elapsed=0:00:47.30    \nframe=   82 fps=1.7 q=44.0 size=       1KiB time=00:00:00.67 bitrate=   6.6kbits/s speed=0.0141x elapsed=0:00:47.80    \nframe=   82 fps=1.7 q=44.0 size=       1KiB time=00:00:00.67 bitrate=   6.6kbits/s speed=0.014x elapsed=0:00:48.33    \nframe=   82 fps=1.7 q=44.0 size=       1KiB time=00:00:00.67 bitrate=   6.6kbits/s speed=0.0138x elapsed=0:00:48.85    \nframe=   83 fps=1.7 q=44.0 size=       1KiB time=00:00:00.68 bitrate=   6.6kbits/s speed=0.0138x elapsed=0:00:49.35    \nframe=   85 fps=1.7 q=48.0 size=       1KiB time=00:00:00.70 bitrate=   6.4kbits/s speed=0.014x elapsed=0:00:49.87    \nframe=   85 fps=1.7 q=48.0 size=       1KiB time=00:00:00.70 bitrate=   6.4kbits/s speed=0.0139x elapsed=0:00:50.39    \nframe=   86 fps=1.7 q=42.0 size=       1KiB time=00:00:00.70 bitrate=   6.3kbits/s speed=0.0139x elapsed=0:00:50.90    \nframe=   86 fps=1.7 q=42.0 size=       1KiB time=00:00:00.70 bitrate=   6.3kbits/s speed=0.0138x elapsed=0:00:51.42    \nframe=   86 fps=1.7 q=42.0 size=       1KiB time=00:00:00.70 bitrate=   6.3kbits/s speed=0.0136x elapsed=0:00:51.94    \nframe=   87 fps=1.7 q=44.0 size=       1KiB time=00:00:00.71 bitrate=   6.3kbits/s speed=0.0137x elapsed=0:00:52.44    \nframe=   87 fps=1.6 q=44.0 size=       1KiB time=00:00:00.71 bitrate=   6.3kbits/s speed=0.0135x elapsed=0:00:52.97    \nframe=   89 fps=1.7 q=45.0 size=       1KiB time=00:00:00.73 bitrate=   6.1kbits/s speed=0.0137x elapsed=0:00:53.48    \nframe=   90 fps=1.7 q=49.0 size=       1KiB time=00:00:00.74 bitrate=   6.0kbits/s speed=0.0137x elapsed=0:00:54.00    \nframe=   91 fps=1.7 q=45.0 size=       1KiB time=00:00:00.75 bitrate=   6.0kbits/s speed=0.0138x elapsed=0:00:54.51    \nframe=   92 fps=1.7 q=43.0 size=       1KiB time=00:00:00.75 bitrate=   5.9kbits/s speed=0.0138x elapsed=0:00:55.02    \nframe=   94 fps=1.7 q=43.0 size=       1KiB time=00:00:00.77 bitrate=   5.8kbits/s speed=0.0139x elapsed=0:00:55.56    \nframe=   95 fps=1.7 q=45.0 size=       1KiB time=00:00:00.78 bitrate=   5.7kbits/s speed=0.014x elapsed=0:00:56.08    \nframe=   95 fps=1.7 q=45.0 size=       1KiB time=00:00:00.78 bitrate=   5.7kbits/s speed=0.0138x elapsed=0:00:56.61    \nframe=   97 fps=1.7 q=37.0 size=       1KiB time=00:00:00.80 bitrate=   5.6kbits/s speed=0.014x elapsed=0:00:57.14    \nframe=   98 fps=1.7 q=45.0 size=       1KiB time=00:00:00.80 bitrate=   5.5kbits/s speed=0.014x elapsed=0:00:57.66    \nframe=   99 fps=1.7 q=45.0 size=       1KiB time=00:00:00.81 bitrate=   5.5kbits/s speed=0.014x elapsed=0:00:58.19    \nframe=   99 fps=1.7 q=45.0 size=       1KiB time=00:00:00.81 bitrate=   5.5kbits/s speed=0.0139x elapsed=0:00:58.70    \nframe=  101 fps=1.7 q=48.0 size=       1KiB time=00:00:00.83 bitrate=   5.4kbits/s speed=0.0141x elapsed=0:00:59.22    \nframe=  102 fps=1.7 q=43.0 size=       1KiB time=00:00:00.84 bitrate=   5.3kbits/s speed=0.0141x elapsed=0:00:59.75    \nframe=  102 fps=1.7 q=43.0 size=       1KiB time=00:00:00.84 bitrate=   5.3kbits/s speed=0.014x elapsed=0:01:00.26    \nframe=  103 fps=1.7 q=45.0 size=       1KiB time=00:00:00.85 bitrate=   5.3kbits/s speed=0.014x elapsed=0:01:00.78    \nframe=  103 fps=1.7 q=45.0 size=       1KiB time=00:00:00.85 bitrate=   5.3kbits/s speed=0.0139x elapsed=0:01:01.31    \nframe=  104 fps=1.7 q=43.0 size=       1KiB time=00:00:00.85 bitrate=   5.2kbits/s speed=0.0139x elapsed=0:01:01.82    \nframe=  106 fps=1.7 q=43.0 size=       1KiB time=00:00:00.87 bitrate=   5.1kbits/s speed=0.014x elapsed=0:01:02.35    \nframe=  108 fps=1.7 q=43.0 size=       1KiB time=00:00:00.89 bitrate=   5.0kbits/s speed=0.0142x elapsed=0:01:02.87    \nframe=  111 fps=1.8 q=45.0 size=       1KiB time=00:00:00.91 bitrate=   4.9kbits/s speed=0.0145x elapsed=0:01:03.38    \nframe=  113 fps=1.8 q=38.0 size=       1KiB time=00:00:00.93 bitrate=   4.8kbits/s speed=0.0146x elapsed=0:01:03.90    \nframe=  114 fps=1.8 q=45.0 size=       1KiB time=00:00:00.94 bitrate=   4.8kbits/s speed=0.0146x elapsed=0:01:04.42    \nframe=  114 fps=1.8 q=45.0 size=       1KiB time=00:00:00.94 bitrate=   4.8kbits/s speed=0.0145x elapsed=0:01:04.94    \nframe=  116 fps=1.8 q=43.0 size=       1KiB time=00:00:00.95 bitrate=   4.7kbits/s speed=0.0146x elapsed=0:01:05.46    \nframe=  116 fps=1.8 q=43.0 size=       1KiB time=00:00:00.95 bitrate=   4.7kbits/s speed=0.0145x elapsed=0:01:05.99    \nframe=  118 fps=1.8 q=43.0 size=       1KiB time=00:00:00.97 bitrate=   4.6kbits/s speed=0.0147x elapsed=0:01:06.52    \nframe=  119 fps=1.8 q=45.0 size=       1KiB time=00:00:00.98 bitrate=   4.6kbits/s speed=0.0147x elapsed=0:01:07.04    \nframe=  119 fps=1.8 q=45.0 size=       1KiB time=00:00:00.98 bitrate=   4.6kbits/s speed=0.0146x elapsed=0:01:07.56    \nframe=  122 fps=1.8 q=43.0 size=       1KiB time=00:00:01.00 bitrate=   4.5kbits/s speed=0.0147x elapsed=0:01:08.11    \nframe=  123 fps=1.8 q=45.0 size=       1KiB time=00:00:01.01 bitrate=   4.4kbits/s speed=0.0148x elapsed=0:01:08.68    \nframe=  124 fps=1.8 q=43.0 size=       1KiB time=00:00:01.02 bitrate=   4.4kbits/s speed=0.0148x elapsed=0:01:09.20    \nframe=  126 fps=1.8 q=44.0 size=       1KiB time=00:00:01.04 bitrate=   4.3kbits/s speed=0.0149x elapsed=0:01:09.78    \nframe=  129 fps=1.8 q=38.0 size=       1KiB time=00:00:01.05 bitrate=   4.3kbits/s speed=0.0149x elapsed=0:01:10.36    \nframe=  130 fps=1.8 q=45.0 size=       1KiB time=00:00:01.07 bitrate=   4.2kbits/s speed=0.0151x elapsed=0:01:10.99    \nframe=  131 fps=1.8 q=45.0 size=       1KiB time=00:00:01.08 bitrate=   4.1kbits/s speed=0.0151x elapsed=0:01:11.51    \nframe=  133 fps=1.8 q=48.0 size=       1KiB time=00:00:01.10 bitrate=   4.1kbits/s speed=0.0153x elapsed=0:01:12.03    \nframe=  135 fps=1.9 q=45.0 size=       1KiB time=00:00:01.11 bitrate=   4.0kbits/s speed=0.0154x elapsed=0:01:12.54    \nframe=  135 fps=1.8 q=45.0 size=       1KiB time=00:00:01.11 bitrate=   4.0kbits/s speed=0.0153x elapsed=0:01:13.06    \nframe=  138 fps=1.9 q=45.0 size=       1KiB time=00:00:01.14 bitrate=   3.9kbits/s speed=0.0155x elapsed=0:01:13.57    \nframe=  139 fps=1.9 q=45.0 size=       1KiB time=00:00:01.15 bitrate=   3.9kbits/s speed=0.0155x elapsed=0:01:14.10    \nframe=  141 fps=1.9 q=48.0 size=       1KiB time=00:00:01.16 bitrate=   3.8kbits/s speed=0.0156x elapsed=0:01:14.60    \nframe=  143 fps=1.9 q=45.0 size=       1KiB time=00:00:01.18 bitrate=   3.8kbits/s speed=0.0158x elapsed=0:01:15.13    \nframe=  144 fps=1.9 q=45.0 size=       1KiB time=00:00:01.19 bitrate=   3.8kbits/s speed=0.0158x elapsed=0:01:15.63    \nframe=  146 fps=1.9 q=46.0 size=       1KiB time=00:00:01.20 bitrate=   3.7kbits/s speed=0.0159x elapsed=0:01:16.15    \nframe=  147 fps=1.9 q=47.0 size=       1KiB time=00:00:01.21 bitrate=   3.7kbits/s speed=0.0159x elapsed=0:01:16.68    \nframe=  149 fps=1.9 q=49.0 size=       1KiB time=00:00:01.23 bitrate=   3.6kbits/s speed=0.016x elapsed=0:01:17.20    \nframe=  150 fps=1.9 q=46.0 size=       1KiB time=00:00:01.24 bitrate=   3.6kbits/s speed=0.016x elapsed=0:01:17.72    \nframe=  152 fps=1.9 q=46.0 size=       1KiB time=00:00:01.25 bitrate=   3.6kbits/s speed=0.0161x elapsed=0:01:18.22    \nframe=  153 fps=1.9 q=46.0 size=       1KiB time=00:00:01.26 bitrate=   3.5kbits/s speed=0.0161x elapsed=0:01:18.75    \nframe=  155 fps=2.0 q=47.0 size=       1KiB time=00:00:01.28 bitrate=   3.5kbits/s speed=0.0162x elapsed=0:01:19.27    \nframe=  156 fps=2.0 q=46.0 size=       1KiB time=00:00:01.29 bitrate=   3.5kbits/s speed=0.0162x elapsed=0:01:19.78    \nframe=  157 fps=2.0 q=49.0 size=       1KiB time=00:00:01.30 bitrate=   3.4kbits/s speed=0.0162x elapsed=0:01:20.30    \nframe=  158 fps=2.0 q=46.0 size=       1KiB time=00:00:01.30 bitrate=   3.4kbits/s speed=0.0162x elapsed=0:01:20.81    \nframe=  159 fps=2.0 q=47.0 size=       1KiB time=00:00:01.31 bitrate=   3.4kbits/s speed=0.0162x elapsed=0:01:21.33    \nframe=  160 fps=2.0 q=46.0 size=       1KiB time=00:00:01.32 bitrate=   3.4kbits/s speed=0.0162x elapsed=0:01:21.84    \nframe=  162 fps=2.0 q=46.0 size=       1KiB time=00:00:01.34 bitrate=   3.3kbits/s speed=0.0163x elapsed=0:01:22.36    \nframe=  163 fps=2.0 q=47.0 size=       1KiB time=00:00:01.35 bitrate=   3.3kbits/s speed=0.0163x elapsed=0:01:22.87    \nframe=  164 fps=2.0 q=46.0 size=       1KiB time=00:00:01.35 bitrate=   3.3kbits/s speed=0.0163x elapsed=0:01:23.39    \nframe=  165 fps=2.0 q=49.0 size=       1KiB time=00:00:01.36 bitrate=   3.3kbits/s speed=0.0163x elapsed=0:01:23.90    \nframe=  165 fps=2.0 q=49.0 size=       1KiB time=00:00:01.36 bitrate=   3.3kbits/s speed=0.0162x elapsed=0:01:24.42    \nframe=  166 fps=2.0 q=46.0 size=       1KiB time=00:00:01.37 bitrate=   3.3kbits/s speed=0.0162x elapsed=0:01:24.93    \nframe=  167 fps=2.0 q=47.0 size=       1KiB time=00:00:01.38 bitrate=   3.2kbits/s speed=0.0162x elapsed=0:01:25.45    \nframe=  170 fps=2.0 q=45.0 size=       1KiB time=00:00:01.40 bitrate=   3.2kbits/s speed=0.0164x elapsed=0:01:25.97    \nframe=  170 fps=2.0 q=45.0 size=       1KiB time=00:00:01.40 bitrate=   3.2kbits/s speed=0.0163x elapsed=0:01:26.50    \nframe=  172 fps=2.0 q=45.0 size=       1KiB time=00:00:01.42 bitrate=   3.1kbits/s speed=0.0164x elapsed=0:01:27.02    \nframe=  174 fps=2.0 q=44.0 size=       1KiB time=00:00:01.44 bitrate=   3.1kbits/s speed=0.0165x elapsed=0:01:27.53    \nframe=  176 fps=2.0 q=44.0 size=       1KiB time=00:00:01.45 bitrate=   3.1kbits/s speed=0.0166x elapsed=0:01:28.04    \nframe=  177 fps=2.0 q=39.0 size=       1KiB time=00:00:01.46 bitrate=   3.1kbits/s speed=0.0166x elapsed=0:01:28.56    \nframe=  179 fps=2.0 q=46.0 size=       1KiB time=00:00:01.48 bitrate=   3.0kbits/s speed=0.0167x elapsed=0:01:29.07    \nframe=  181 fps=2.0 q=48.0 size=       1KiB time=00:00:01.50 bitrate=   3.0kbits/s speed=0.0167x elapsed=0:01:29.59    \nframe=  182 fps=2.0 q=45.0 size=       1KiB time=00:00:01.50 bitrate=   3.0kbits/s speed=0.0167x elapsed=0:01:30.10    \nframe=  182 fps=2.0 q=45.0 size=       1KiB time=00:00:01.50 bitrate=   3.0kbits/s speed=0.0166x elapsed=0:01:30.62    \nframe=  185 fps=2.0 q=45.0 size=       1KiB time=00:00:01.53 bitrate=   2.9kbits/s speed=0.0168x elapsed=0:01:31.14    \nframe=  186 fps=2.0 q=45.0 size=       1KiB time=00:00:01.54 bitrate=   2.9kbits/s speed=0.0168x elapsed=0:01:31.65    \nframe=  188 fps=2.0 q=45.0 size=       1KiB time=00:00:01.55 bitrate=   2.9kbits/s speed=0.0169x elapsed=0:01:32.17    \nframe=  190 fps=2.0 q=44.0 size=       1KiB time=00:00:01.57 bitrate=   2.8kbits/s speed=0.017x elapsed=0:01:32.68    \nframe=  191 fps=2.0 q=43.0 size=       1KiB time=00:00:01.58 bitrate=   2.8kbits/s speed=0.017x elapsed=0:01:33.20    \nframe=  192 fps=2.0 q=44.0 size=       1KiB time=00:00:01.59 bitrate=   2.8kbits/s speed=0.017x elapsed=0:01:33.71    \nframe=  194 fps=2.1 q=45.0 size=       1KiB time=00:00:01.60 bitrate=   2.8kbits/s speed=0.0171x elapsed=0:01:34.23    \nframe=  196 fps=2.1 q=45.0 size=       1KiB time=00:00:01.62 bitrate=   2.8kbits/s speed=0.0172x elapsed=0:01:34.74    \nframe=  197 fps=2.1 q=48.0 size=       1KiB time=00:00:01.63 bitrate=   2.7kbits/s speed=0.0171x elapsed=0:01:35.27    \nframe=  198 fps=2.1 q=45.0 size=       1KiB time=00:00:01.64 bitrate=   2.7kbits/s speed=0.0171x elapsed=0:01:35.77    \nframe=  200 fps=2.1 q=45.0 size=       1KiB time=00:00:01.65 bitrate=   2.7kbits/s speed=0.0172x elapsed=0:01:36.29    \nframe=  202 fps=2.1 q=45.0 size=       1KiB time=00:00:01.67 bitrate=   2.7kbits/s speed=0.0173x elapsed=0:01:36.81    \nframe=  205 fps=2.1 q=48.0 size=       1KiB time=00:00:01.70 bitrate=   2.6kbits/s speed=0.0175x elapsed=0:01:37.32    \nframe=  206 fps=2.1 q=44.0 size=       1KiB time=00:00:01.70 bitrate=   2.6kbits/s speed=0.0175x elapsed=0:01:37.85    \nframe=  207 fps=2.1 q=43.0 size=       1KiB time=00:00:01.71 bitrate=   2.6kbits/s speed=0.0175x elapsed=0:01:38.35    \nframe=  209 fps=2.1 q=39.0 size=       1KiB time=00:00:01.73 bitrate=   2.6kbits/s speed=0.0175x elapsed=0:01:38.88    \nframe=  211 fps=2.1 q=47.0 size=       1KiB time=00:00:01.75 bitrate=   2.6kbits/s speed=0.0176x elapsed=0:01:39.38    \nframe=  213 fps=2.1 q=49.0 size=       1KiB time=00:00:01.76 bitrate=   2.5kbits/s speed=0.0177x elapsed=0:01:39.91    \nframe=  214 fps=2.1 q=46.0 size=       1KiB time=00:00:01.77 bitrate=   2.5kbits/s speed=0.0177x elapsed=0:01:40.41    \nframe=  215 fps=2.1 q=47.0 size=       1KiB time=00:00:01.78 bitrate=   2.5kbits/s speed=0.0177x elapsed=0:01:40.94    \nframe=  217 fps=2.1 q=46.0 size=       1KiB time=00:00:01.80 bitrate=   2.5kbits/s speed=0.0177x elapsed=0:01:41.46    \nframe=  219 fps=2.1 q=46.0 size=       1KiB time=00:00:01.81 bitrate=   2.5kbits/s speed=0.0178x elapsed=0:01:41.96    \nframe=  220 fps=2.1 q=45.0 size=       1KiB time=00:00:01.82 bitrate=   2.5kbits/s speed=0.0178x elapsed=0:01:42.48    \nframe=  220 fps=2.1 q=45.0 size=       1KiB time=00:00:01.82 bitrate=   2.5kbits/s speed=0.0177x elapsed=0:01:43.00    \nframe=  221 fps=2.1 q=48.0 size=       1KiB time=00:00:01.83 bitrate=   2.4kbits/s speed=0.0177x elapsed=0:01:43.53    \nframe=  221 fps=2.1 q=48.0 size=       1KiB time=00:00:01.83 bitrate=   2.4kbits/s speed=0.0176x elapsed=0:01:44.05    \nframe=  222 fps=2.1 q=45.0 size=       1KiB time=00:00:01.84 bitrate=   2.4kbits/s speed=0.0176x elapsed=0:01:44.55    \nframe=  223 fps=2.1 q=46.0 size=       1KiB time=00:00:01.85 bitrate=   2.4kbits/s speed=0.0176x elapsed=0:01:45.08    \nframe=  225 fps=2.1 q=39.0 size=       1KiB time=00:00:01.86 bitrate=   2.4kbits/s speed=0.0177x elapsed=0:01:45.58    \nframe=  226 fps=2.1 q=46.0 size=       1KiB time=00:00:01.87 bitrate=   2.4kbits/s speed=0.0177x elapsed=0:01:46.11    \nframe=  227 fps=2.1 q=47.0 size=       1KiB time=00:00:01.88 bitrate=   2.4kbits/s speed=0.0177x elapsed=0:01:46.63    \nframe=  229 fps=2.1 q=49.0 size=       1KiB time=00:00:01.90 bitrate=   2.4kbits/s speed=0.0177x elapsed=0:01:47.13    \nframe=  231 fps=2.1 q=47.0 size=       1KiB time=00:00:01.91 bitrate=   2.3kbits/s speed=0.0178x elapsed=0:01:47.65    \nframe=  233 fps=2.2 q=46.0 size=       1KiB time=00:00:01.93 bitrate=   2.3kbits/s speed=0.0179x elapsed=0:01:48.18    \nframe=  235 fps=2.2 q=46.0 size=       1KiB time=00:00:01.95 bitrate=   2.3kbits/s speed=0.0179x elapsed=0:01:48.70    \nframe=  237 fps=2.2 q=48.0 size=       1KiB time=00:00:01.96 bitrate=   2.3kbits/s speed=0.018x elapsed=0:01:49.22    \nframe=  237 fps=2.2 q=48.0 size=       1KiB time=00:00:01.96 bitrate=   2.3kbits/s speed=0.0179x elapsed=0:01:49.73    \nframe=  238 fps=2.2 q=45.0 size=       1KiB time=00:00:01.97 bitrate=   2.3kbits/s speed=0.0179x elapsed=0:01:50.25    \nframe=  239 fps=2.2 q=46.0 size=       1KiB time=00:00:01.98 bitrate=   2.3kbits/s speed=0.0179x elapsed=0:01:50.77    \nframe=  242 fps=2.2 q=46.0 size=       1KiB time=00:00:02.00 bitrate=   2.2kbits/s speed=0.018x elapsed=0:01:51.27    \nframe=  244 fps=2.2 q=46.0 size=       1KiB time=00:00:02.02 bitrate=   2.2kbits/s speed=0.0181x elapsed=0:01:51.79    \nframe=  244 fps=2.2 q=46.0 size=       1KiB time=00:00:02.02 bitrate=   2.2kbits/s speed=0.018x elapsed=0:01:52.30    \nframe=  244 fps=2.2 q=46.0 size=       1KiB time=00:00:02.02 bitrate=   2.2kbits/s speed=0.0179x elapsed=0:01:52.82    \nframe=  246 fps=2.2 q=46.0 size=       1KiB time=00:00:02.04 bitrate=   2.2kbits/s speed=0.018x elapsed=0:01:53.35    \nframe=  246 fps=2.2 q=46.0 size=       1KiB time=00:00:02.04 bitrate=   2.2kbits/s speed=0.0179x elapsed=0:01:53.85    \nframe=  247 fps=2.2 q=47.0 size=       1KiB time=00:00:02.05 bitrate=   2.2kbits/s speed=0.0179x elapsed=0:01:54.38    \nframe=  248 fps=2.2 q=46.0 size=       1KiB time=00:00:02.05 bitrate=   2.2kbits/s speed=0.0179x elapsed=0:01:54.88    \nframe=  250 fps=2.2 q=45.0 size=       1KiB time=00:00:02.07 bitrate=   2.2kbits/s speed=0.018x elapsed=0:01:55.40    \nframe=  251 fps=2.2 q=46.0 size=       1KiB time=00:00:02.08 bitrate=   2.2kbits/s speed=0.018x elapsed=0:01:55.91    \nframe=  251 fps=2.2 q=46.0 size=       1KiB time=00:00:02.08 bitrate=   2.2kbits/s speed=0.0179x elapsed=0:01:56.44    \nframe=  251 fps=2.1 q=46.0 size=       1KiB time=00:00:02.08 bitrate=   2.2kbits/s speed=0.0178x elapsed=0:01:56.94    \nframe=  253 fps=2.2 q=48.0 size=       1KiB time=00:00:02.10 bitrate=   2.1kbits/s speed=0.0179x elapsed=0:01:57.46    \nframe=  255 fps=2.2 q=45.0 size=       1KiB time=00:00:02.11 bitrate=   2.1kbits/s speed=0.0179x elapsed=0:01:57.99    \nframe=  256 fps=2.2 q=45.0 size=       1KiB time=00:00:02.12 bitrate=   2.1kbits/s speed=0.0179x elapsed=0:01:58.49    \nframe=  258 fps=2.2 q=46.0 size=       1KiB time=00:00:02.14 bitrate=   2.1kbits/s speed=0.018x elapsed=0:01:59.02    \nframe=  260 fps=2.2 q=46.0 size=       1KiB time=00:00:02.15 bitrate=   2.1kbits/s speed=0.0181x elapsed=0:01:59.52    \nframe=  261 fps=2.2 q=50.0 size=       1KiB time=00:00:02.16 bitrate=   2.1kbits/s speed=0.018x elapsed=0:02:00.05    \nframe=  262 fps=2.2 q=46.0 size=       1KiB time=00:00:02.17 bitrate=   2.1kbits/s speed=0.018x elapsed=0:02:00.55    \nframe=  262 fps=2.2 q=46.0 size=       1KiB time=00:00:02.17 bitrate=   2.1kbits/s speed=0.018x elapsed=0:02:01.07    \nframe=  264 fps=2.2 q=46.0 size=       1KiB time=00:00:02.19 bitrate=   2.0kbits/s speed=0.018x elapsed=0:02:01.59    \nframe=  265 fps=2.2 q=46.0 size=       1KiB time=00:00:02.20 bitrate=   2.0kbits/s speed=0.018x elapsed=0:02:02.10    \nframe=  267 fps=2.2 q=47.0 size=       1KiB time=00:00:02.21 bitrate=   2.0kbits/s speed=0.0181x elapsed=0:02:02.62    \nframe=  268 fps=2.2 q=46.0 size=       1KiB time=00:00:02.22 bitrate=   2.0kbits/s speed=0.0181x elapsed=0:02:03.14    \nframe=  269 fps=2.2 q=49.0 size=       1KiB time=00:00:02.23 bitrate=   2.0kbits/s speed=0.0181x elapsed=0:02:03.65    \nframe=  271 fps=2.2 q=47.0 size=       1KiB time=00:00:02.25 bitrate=   2.0kbits/s speed=0.0181x elapsed=0:02:04.17    \nframe=  272 fps=2.2 q=46.0 size=       1KiB time=00:00:02.25 bitrate=   2.0kbits/s speed=0.0181x elapsed=0:02:04.69    \nframe=  273 fps=2.2 q=40.0 size=       1KiB time=00:00:02.26 bitrate=   2.0kbits/s speed=0.0181x elapsed=0:02:05.20    \nframe=  274 fps=2.2 q=46.0 size=       1KiB time=00:00:02.27 bitrate=   2.0kbits/s speed=0.0181x elapsed=0:02:05.71    \nframe=  275 fps=2.2 q=47.0 size=       1KiB time=00:00:02.28 bitrate=   2.0kbits/s speed=0.0181x elapsed=0:02:06.24    \nframe=  276 fps=2.2 q=46.0 size=       1KiB time=00:00:02.29 bitrate=   2.0kbits/s speed=0.0181x elapsed=0:02:06.74    \nframe=  278 fps=2.2 q=46.0 size=       1KiB time=00:00:02.30 bitrate=   1.9kbits/s speed=0.0181x elapsed=0:02:07.27    \nframe=  279 fps=2.2 q=47.0 size=       1KiB time=00:00:02.31 bitrate=   1.9kbits/s speed=0.0181x elapsed=0:02:07.77    \nframe=  281 fps=2.2 q=46.0 size=       1KiB time=00:00:02.33 bitrate=   1.9kbits/s speed=0.0182x elapsed=0:02:08.30    \nframe=  283 fps=2.2 q=46.0 size=       1KiB time=00:00:02.35 bitrate=   1.9kbits/s speed=0.0182x elapsed=0:02:08.80    \nframe=  285 fps=2.2 q=48.0 size=       1KiB time=00:00:02.36 bitrate=   1.9kbits/s speed=0.0183x elapsed=0:02:09.32    \nframe=  286 fps=2.2 q=45.0 size=       1KiB time=00:00:02.37 bitrate=   1.9kbits/s speed=0.0183x elapsed=0:02:09.85    \nframe=  287 fps=2.2 q=46.0 size=       1KiB time=00:00:02.38 bitrate=   1.9kbits/s speed=0.0183x elapsed=0:02:10.35    \nframe=  287 fps=2.2 q=46.0 size=       1KiB time=00:00:02.38 bitrate=   1.9kbits/s speed=0.0182x elapsed=0:02:10.87    \nframe=  289 fps=2.2 q=40.0 size=       1KiB time=00:00:02.40 bitrate=   1.9kbits/s speed=0.0183x elapsed=0:02:11.38    \nframe=  290 fps=2.2 q=46.0 size=       1KiB time=00:00:02.40 bitrate=   1.9kbits/s speed=0.0183x elapsed=0:02:11.90    \nframe=  292 fps=2.2 q=46.0 size=       1KiB time=00:00:02.42 bitrate=   1.8kbits/s speed=0.0183x elapsed=0:02:12.42    \nframe=  293 fps=2.2 q=50.0 size=       1KiB time=00:00:02.43 bitrate=   1.8kbits/s speed=0.0183x elapsed=0:02:12.94    \nframe=  296 fps=2.2 q=46.0 size=       1KiB time=00:00:02.45 bitrate=   1.8kbits/s speed=0.0184x elapsed=0:02:13.45    \nframe=  298 fps=2.2 q=46.0 size=       1KiB time=00:00:02.47 bitrate=   1.8kbits/s speed=0.0185x elapsed=0:02:13.97    \nframe=  299 fps=2.2 q=47.0 size=       1KiB time=00:00:02.48 bitrate=   1.8kbits/s speed=0.0185x elapsed=0:02:14.48    \nframe=  301 fps=2.2 q=49.0 size=       1KiB time=00:00:02.50 bitrate=   1.8kbits/s speed=0.0185x elapsed=0:02:15.00    \nframe=  302 fps=2.2 q=46.0 size=       1KiB time=00:00:02.50 bitrate=   1.8kbits/s speed=0.0185x elapsed=0:02:15.51    \nframe=  303 fps=2.2 q=47.0 size=       1KiB time=00:00:02.51 bitrate=   1.8kbits/s speed=0.0185x elapsed=0:02:16.02    \nframe=  306 fps=2.2 q=46.0 size=       1KiB time=00:00:02.54 bitrate=   1.8kbits/s speed=0.0186x elapsed=0:02:16.54    \nframe=  308 fps=2.2 q=46.0 size=       1KiB time=00:00:02.55 bitrate=   1.8kbits/s speed=0.0187x elapsed=0:02:17.06    \nframe=  309 fps=2.2 q=50.0 size=       1KiB time=00:00:02.56 bitrate=   1.7kbits/s speed=0.0187x elapsed=0:02:17.57    \nframe=  310 fps=2.2 q=46.0 size=       1KiB time=00:00:02.57 bitrate=   1.7kbits/s speed=0.0186x elapsed=0:02:18.09    \nframe=  311 fps=2.2 q=47.0 size=       1KiB time=00:00:02.58 bitrate=   1.7kbits/s speed=0.0186x elapsed=0:02:18.60    \nframe=  313 fps=2.2 q=46.0 size=       1KiB time=00:00:02.60 bitrate=   1.7kbits/s speed=0.0187x elapsed=0:02:19.12    \nframe=  314 fps=2.2 q=46.0 size=       1KiB time=00:00:02.60 bitrate=   1.7kbits/s speed=0.0187x elapsed=0:02:19.64    \nframe=  315 fps=2.2 q=47.0 size=       1KiB time=00:00:02.61 bitrate=   1.7kbits/s speed=0.0187x elapsed=0:02:20.15    \nframe=  317 fps=2.3 q=50.0 size=       1KiB time=00:00:02.63 bitrate=   1.7kbits/s speed=0.0187x elapsed=0:02:20.67    \nframe=  317 fps=2.2 q=50.0 size=       1KiB time=00:00:02.63 bitrate=   1.7kbits/s speed=0.0187x elapsed=0:02:21.18    \nframe=  317 fps=2.2 q=50.0 size=       1KiB time=00:00:02.63 bitrate=   1.7kbits/s speed=0.0186x elapsed=0:02:21.70    \nframe=  318 fps=2.2 q=46.0 size=       1KiB time=00:00:02.64 bitrate=   1.7kbits/s speed=0.0186x elapsed=0:02:22.22    \nframe=  319 fps=2.2 q=47.0 size=       1KiB time=00:00:02.65 bitrate=   1.7kbits/s speed=0.0186x elapsed=0:02:22.73    \nframe=  320 fps=2.2 q=46.0 size=       1KiB time=00:00:02.65 bitrate=   1.7kbits/s speed=0.0186x elapsed=0:02:23.25    \nframe=  321 fps=2.2 q=40.0 size=       1KiB time=00:00:02.66 bitrate=   1.7kbits/s speed=0.0185x elapsed=0:02:23.76    \nframe=  322 fps=2.2 q=47.0 size=       1KiB time=00:00:02.67 bitrate=   1.7kbits/s speed=0.0185x elapsed=0:02:24.28    \nframe=  325 fps=2.2 q=50.0 size=       1KiB time=00:00:02.70 bitrate=   1.7kbits/s speed=0.0186x elapsed=0:02:24.79    \nframe=  326 fps=2.2 q=45.0 size=       1KiB time=00:00:02.70 bitrate=   1.7kbits/s speed=0.0186x elapsed=0:02:25.31    \nframe=  328 fps=2.2 q=45.0 size=       1KiB time=00:00:02.72 bitrate=   1.6kbits/s speed=0.0187x elapsed=0:02:25.83    \nframe=  330 fps=2.3 q=45.0 size=       1KiB time=00:00:02.74 bitrate=   1.6kbits/s speed=0.0187x elapsed=0:02:26.34    \nframe=  332 fps=2.3 q=45.0 size=       1KiB time=00:00:02.75 bitrate=   1.6kbits/s speed=0.0188x elapsed=0:02:26.86    \nframe=  333 fps=2.3 q=50.0 size=       1KiB time=00:00:02.76 bitrate=   1.6kbits/s speed=0.0188x elapsed=0:02:27.37    \nframe=  336 fps=2.3 q=47.0 size=       1KiB time=00:00:02.79 bitrate=   1.6kbits/s speed=0.0189x elapsed=0:02:27.88    \nframe=  336 fps=2.3 q=47.0 size=       1KiB time=00:00:02.79 bitrate=   1.6kbits/s speed=0.0188x elapsed=0:02:28.40    \nframe=  337 fps=2.3 q=40.0 size=       1KiB time=00:00:02.80 bitrate=   1.6kbits/s speed=0.0188x elapsed=0:02:28.93    \nframe=  338 fps=2.3 q=47.0 size=       1KiB time=00:00:02.80 bitrate=   1.6kbits/s speed=0.0188x elapsed=0:02:29.43    \nframe=  340 fps=2.3 q=45.0 size=       1KiB time=00:00:02.82 bitrate=   1.6kbits/s speed=0.0188x elapsed=0:02:29.95    \nframe=  342 fps=2.3 q=45.0 size=       1KiB time=00:00:02.84 bitrate=   1.6kbits/s speed=0.0189x elapsed=0:02:30.47    \nframe=  344 fps=2.3 q=45.0 size=       1KiB time=00:00:02.85 bitrate=   1.6kbits/s speed=0.0189x elapsed=0:02:30.98    \nframe=  345 fps=2.3 q=48.0 size=       1KiB time=00:00:02.86 bitrate=   1.6kbits/s speed=0.0189x elapsed=0:02:31.49    \nframe=  347 fps=2.3 q=47.0 size=       1KiB time=00:00:02.88 bitrate=   1.6kbits/s speed=0.019x elapsed=0:02:32.01    \nframe=  348 fps=2.3 q=45.0 size=       1KiB time=00:00:02.89 bitrate=   1.5kbits/s speed=0.019x elapsed=0:02:32.53    \nframe=  348 fps=2.3 q=45.0 size=       1KiB time=00:00:02.89 bitrate=   1.5kbits/s speed=0.0189x elapsed=0:02:33.05    \nframe=  352 fps=2.3 q=47.0 size=       1KiB time=00:00:02.92 bitrate=   1.5kbits/s speed=0.019x elapsed=0:02:33.56    \nframe=  353 fps=2.3 q=40.0 size=       1KiB time=00:00:02.93 bitrate=   1.5kbits/s speed=0.019x elapsed=0:02:34.08    \nframe=  354 fps=2.3 q=47.0 size=       1KiB time=00:00:02.94 bitrate=   1.5kbits/s speed=0.019x elapsed=0:02:34.61    \nframe=  355 fps=2.3 q=47.0 size=       1KiB time=00:00:02.95 bitrate=   1.5kbits/s speed=0.019x elapsed=0:02:35.13    \nframe=  357 fps=2.3 q=50.0 size=       1KiB time=00:00:02.96 bitrate=   1.5kbits/s speed=0.0191x elapsed=0:02:35.64    \nframe=  358 fps=2.3 q=46.0 size=       1KiB time=00:00:02.97 bitrate=   1.5kbits/s speed=0.0191x elapsed=0:02:36.15    \nframe=  359 fps=2.3 q=47.0 size=       1KiB time=00:00:02.98 bitrate=   1.5kbits/s speed=0.019x elapsed=0:02:36.67    \nframe=  361 fps=2.3 q=48.0 size=       1KiB time=00:00:03.00 bitrate=   1.5kbits/s speed=0.0191x elapsed=0:02:37.19    \nframe=  362 fps=2.3 q=46.0 size=       1KiB time=00:00:03.00 bitrate=   1.5kbits/s speed=0.0191x elapsed=0:02:37.69    \nframe=  363 fps=2.3 q=47.0 size=       1KiB time=00:00:03.01 bitrate=   1.5kbits/s speed=0.0191x elapsed=0:02:38.21    \nframe=  364 fps=2.3 q=46.0 size=       1KiB time=00:00:03.02 bitrate=   1.5kbits/s speed=0.0191x elapsed=0:02:38.74    \nframe=  366 fps=2.3 q=46.0 size=       1KiB time=00:00:03.04 bitrate=   1.5kbits/s speed=0.0191x elapsed=0:02:39.24    \nframe=  367 fps=2.3 q=47.0 size=       1KiB time=00:00:03.05 bitrate=   1.5kbits/s speed=0.0191x elapsed=0:02:39.77    \nframe=  369 fps=2.3 q=41.0 size=       1KiB time=00:00:03.06 bitrate=   1.5kbits/s speed=0.0191x elapsed=0:02:40.27    \nframe=  370 fps=2.3 q=48.0 size=       1KiB time=00:00:03.07 bitrate=   1.5kbits/s speed=0.0191x elapsed=0:02:40.79    \nframe=  371 fps=2.3 q=48.0 size=       1KiB time=00:00:03.08 bitrate=   1.5kbits/s speed=0.0191x elapsed=0:02:41.32    \nframe=  373 fps=2.3 q=51.0 size=       1KiB time=00:00:03.10 bitrate=   1.4kbits/s speed=0.0192x elapsed=0:02:41.83    \nframe=  374 fps=2.3 q=46.0 size=       1KiB time=00:00:03.10 bitrate=   1.4kbits/s speed=0.0191x elapsed=0:02:42.33    \nframe=  375 fps=2.3 q=48.0 size=       1KiB time=00:00:03.11 bitrate=   1.4kbits/s speed=0.0191x elapsed=0:02:42.86    \nframe=  377 fps=2.3 q=49.0 size=       1KiB time=00:00:03.13 bitrate=   1.4kbits/s speed=0.0192x elapsed=0:02:43.37    \nframe=  378 fps=2.3 q=46.0 size=       1KiB time=00:00:03.14 bitrate=   1.4kbits/s speed=0.0192x elapsed=0:02:43.88    \nframe=  381 fps=2.3 q=50.0 size=       1KiB time=00:00:03.16 bitrate=   1.4kbits/s speed=0.0193x elapsed=0:02:44.40    \nframe=  382 fps=2.3 q=46.0 size=       1KiB time=00:00:03.17 bitrate=   1.4kbits/s speed=0.0193x elapsed=0:02:44.92    \nframe=  383 fps=2.3 q=47.0 size=       1KiB time=00:00:03.18 bitrate=   1.4kbits/s speed=0.0192x elapsed=0:02:45.43    \nframe=  386 fps=2.3 q=47.0 size=       1KiB time=00:00:03.20 bitrate=   1.4kbits/s speed=0.0193x elapsed=0:02:45.95    \nframe=  386 fps=2.3 q=47.0 size=       1KiB time=00:00:03.20 bitrate=   1.4kbits/s speed=0.0193x elapsed=0:02:46.46    \nframe=  387 fps=2.3 q=47.0 size=       1KiB time=00:00:03.21 bitrate=   1.4kbits/s speed=0.0193x elapsed=0:02:46.98    \nframe=  389 fps=2.3 q=50.0 size=       1KiB time=00:00:03.23 bitrate=   1.4kbits/s speed=0.0193x elapsed=0:02:47.50    \nframe=  390 fps=2.3 q=46.0 size=       1KiB time=00:00:03.24 bitrate=   1.4kbits/s speed=0.0193x elapsed=0:02:48.01    \nframe=  392 fps=2.3 q=46.0 size=       1KiB time=00:00:03.25 bitrate=   1.4kbits/s speed=0.0193x elapsed=0:02:48.53    \nframe=  394 fps=2.3 q=46.0 size=       1KiB time=00:00:03.27 bitrate=   1.4kbits/s speed=0.0194x elapsed=0:02:49.04    \nframe=  396 fps=2.3 q=43.0 size=       1KiB time=00:00:03.29 bitrate=   1.4kbits/s speed=0.0194x elapsed=0:02:49.55    \nframe=  399 fps=2.3 q=48.0 size=       1KiB time=00:00:03.31 bitrate=   1.4kbits/s speed=0.0195x elapsed=0:02:50.07    \nframe=  399 fps=2.3 q=48.0 size=       1KiB time=00:00:03.31 bitrate=   1.4kbits/s speed=0.0194x elapsed=0:02:50.59    \nframe=  401 fps=2.3 q=41.0 size=       1KiB time=00:00:03.33 bitrate=   1.3kbits/s speed=0.0195x elapsed=0:02:51.10    \nframe=  402 fps=2.3 q=49.0 size=       1KiB time=00:00:03.34 bitrate=   1.3kbits/s speed=0.0195x elapsed=0:02:51.64    \nframe=  403 fps=2.3 q=49.0 size=       1KiB time=00:00:03.35 bitrate=   1.3kbits/s speed=0.0195x elapsed=0:02:52.20    \nframe=  406 fps=2.4 q=48.0 size=       1KiB time=00:00:03.37 bitrate=   1.3kbits/s speed=0.0195x elapsed=0:02:52.72    \nframe=  407 fps=2.3 q=49.0 size=       1KiB time=00:00:03.38 bitrate=   1.3kbits/s speed=0.0195x elapsed=0:02:53.24    \nframe=  407 fps=2.3 q=49.0 size=       1KiB time=00:00:03.38 bitrate=   1.3kbits/s speed=0.0195x elapsed=0:02:53.78    \nframe=  408 fps=2.3 q=48.0 size=       1KiB time=00:00:03.39 bitrate=   1.3kbits/s speed=0.0195x elapsed=0:02:54.30    \nframe=  410 fps=2.3 q=48.0 size=       1KiB time=00:00:03.40 bitrate=   1.3kbits/s speed=0.0195x elapsed=0:02:54.82    \nframe=  410 fps=2.3 q=48.0 size=       1KiB time=00:00:03.40 bitrate=   1.3kbits/s speed=0.0194x elapsed=0:02:55.34    \nframe=  411 fps=2.3 q=49.0 size=       1KiB time=00:00:03.41 bitrate=   1.3kbits/s speed=0.0194x elapsed=0:02:55.88    \nframe=  411 fps=2.3 q=49.0 size=       1KiB time=00:00:03.41 bitrate=   1.3kbits/s speed=0.0194x elapsed=0:02:56.45    \nframe=  412 fps=2.3 q=48.0 size=       1KiB time=00:00:03.42 bitrate=   1.3kbits/s speed=0.0194x elapsed=0:02:56.99    \nframe=  415 fps=2.3 q=48.0 size=       1KiB time=00:00:03.45 bitrate=   1.3kbits/s speed=0.0194x elapsed=0:02:57.59    \nframe=  416 fps=2.3 q=48.0 size=       1KiB time=00:00:03.45 bitrate=   1.3kbits/s speed=0.0194x elapsed=0:02:58.14    \nframe=  419 fps=2.3 q=48.0 size=       1KiB time=00:00:03.48 bitrate=   1.3kbits/s speed=0.0195x elapsed=0:02:58.67    \nframe=  420 fps=2.3 q=47.0 size=       1KiB time=00:00:03.49 bitrate=   1.3kbits/s speed=0.0195x elapsed=0:02:59.25    \nframe=  421 fps=2.3 q=50.0 size=       1KiB time=00:00:03.50 bitrate=   1.3kbits/s speed=0.0195x elapsed=0:02:59.82    \nframe=  422 fps=2.3 q=45.0 size=       1KiB time=00:00:03.50 bitrate=   1.3kbits/s speed=0.0195x elapsed=0:03:00.34    \nframe=  424 fps=2.3 q=45.0 size=       1KiB time=00:00:03.52 bitrate=   1.3kbits/s speed=0.0195x elapsed=0:03:00.85    \nframe=  426 fps=2.3 q=49.0 size=       1KiB time=00:00:03.54 bitrate=   1.3kbits/s speed=0.0195x elapsed=0:03:01.37    \nframe=  427 fps=2.3 q=52.0 size=       1KiB time=00:00:03.55 bitrate=   1.3kbits/s speed=0.0195x elapsed=0:03:01.89    \nframe=  429 fps=2.4 q=52.0 size=       1KiB time=00:00:03.56 bitrate=   1.3kbits/s speed=0.0196x elapsed=0:03:02.40    \nframe=  433 fps=2.4 q=42.0 size=       1KiB time=00:00:03.60 bitrate=   1.2kbits/s speed=0.0197x elapsed=0:03:02.95    \nframe=  434 fps=2.4 q=49.0 size=       1KiB time=00:00:03.60 bitrate=   1.2kbits/s speed=0.0197x elapsed=0:03:03.54    \nframe=  434 fps=2.4 q=49.0 size=       1KiB time=00:00:03.60 bitrate=   1.2kbits/s speed=0.0196x elapsed=0:03:04.06    \nframe=  437 fps=2.4 q=51.0 size=       1KiB time=00:00:03.62 bitrate=   1.2kbits/s speed=0.0196x elapsed=0:03:04.57    \nframe=  438 fps=2.4 q=48.0 size=       1KiB time=00:00:03.64 bitrate=   1.2kbits/s speed=0.0197x elapsed=0:03:05.13    \nframe=  440 fps=2.4 q=48.0 size=       1KiB time=00:00:03.65 bitrate=   1.2kbits/s speed=0.0197x elapsed=0:03:05.70    \nframe=  441 fps=2.4 q=50.0 size=       1KiB time=00:00:03.66 bitrate=   1.2kbits/s speed=0.0197x elapsed=0:03:06.24    \nframe=  443 fps=2.4 q=48.0 size=       1KiB time=00:00:03.68 bitrate=   1.2kbits/s speed=0.0197x elapsed=0:03:06.76    \nframe=  443 fps=2.4 q=48.0 size=       1KiB time=00:00:03.68 bitrate=   1.2kbits/s speed=0.0197x elapsed=0:03:07.29    \nframe=  446 fps=2.4 q=48.0 size=       1KiB time=00:00:03.70 bitrate=   1.2kbits/s speed=0.0197x elapsed=0:03:07.81    \nframe=  448 fps=2.4 q=48.0 size=       1KiB time=00:00:03.72 bitrate=   1.2kbits/s speed=0.0198x elapsed=0:03:08.32    \nframe=  450 fps=2.4 q=49.0 size=       1KiB time=00:00:03.74 bitrate=   1.2kbits/s speed=0.0198x elapsed=0:03:09.04    \nframe=  451 fps=2.4 q=49.0 size=       1KiB time=00:00:03.75 bitrate=   1.2kbits/s speed=0.0198x elapsed=0:03:09.61    \nframe=  454 fps=2.4 q=48.0 size=       1KiB time=00:00:03.77 bitrate=   1.2kbits/s speed=0.0198x elapsed=0:03:10.20    \nframe=  454 fps=2.4 q=48.0 size=       1KiB time=00:00:03.77 bitrate=   1.2kbits/s speed=0.0198x elapsed=0:03:10.81    \nframe=  455 fps=2.4 q=49.0 size=       1KiB time=00:00:03.78 bitrate=   1.2kbits/s speed=0.0198x elapsed=0:03:11.37    \nframe=  457 fps=2.4 q=49.0 size=       1KiB time=00:00:03.80 bitrate=   1.2kbits/s speed=0.0198x elapsed=0:03:11.92    \nframe=  459 fps=2.4 q=49.0 size=       1KiB time=00:00:03.81 bitrate=   1.2kbits/s speed=0.0198x elapsed=0:03:12.43    \nframe=  463 fps=2.4 q=49.0 size=       1KiB time=00:00:03.85 bitrate=   1.2kbits/s speed=0.02x elapsed=0:03:12.96    \nframe=  465 fps=2.4 q=42.0 size=       1KiB time=00:00:03.86 bitrate=   1.2kbits/s speed=0.02x elapsed=0:03:13.48    \nframe=  466 fps=2.4 q=49.0 size=       1KiB time=00:00:03.87 bitrate=   1.2kbits/s speed=0.02x elapsed=0:03:14.02    \nframe=  466 fps=2.4 q=49.0 size=       1KiB time=00:00:03.87 bitrate=   1.2kbits/s speed=0.0199x elapsed=0:03:14.57    \nframe=  469 fps=2.4 q=50.0 size=       1KiB time=00:00:03.90 bitrate=   1.1kbits/s speed=0.02x elapsed=0:03:15.09    \nframe=  470 fps=2.4 q=48.0 size=       1KiB time=00:00:03.90 bitrate=   1.1kbits/s speed=0.02x elapsed=0:03:15.61    \nframe=  471 fps=2.4 q=49.0 size=       1KiB time=00:00:03.91 bitrate=   1.1kbits/s speed=0.02x elapsed=0:03:16.13    \nframe=  472 fps=2.4 q=45.0 size=       1KiB time=00:00:03.92 bitrate=   1.1kbits/s speed=0.02x elapsed=0:03:16.68    \nframe=  474 fps=2.4 q=48.0 size=       1KiB time=00:00:03.93 bitrate=   1.1kbits/s speed=0.0199x elapsed=0:03:17.22    \nframe=  475 fps=2.4 q=49.0 size=       1KiB time=00:00:03.95 bitrate=   1.1kbits/s speed=0.02x elapsed=0:03:17.79    \nframe=  477 fps=2.4 q=50.0 size=       1KiB time=00:00:03.96 bitrate=   1.1kbits/s speed=0.02x elapsed=0:03:18.33    \nframe=  479 fps=2.4 q=49.0 size=       1KiB time=00:00:03.98 bitrate=   1.1kbits/s speed=0.02x elapsed=0:03:18.85    \nframe=  481 fps=2.4 q=42.0 size=       1KiB time=00:00:04.00 bitrate=   1.1kbits/s speed=0.0201x elapsed=0:03:19.37    \nframe=  482 fps=2.4 q=49.0 size=       1KiB time=00:00:04.00 bitrate=   1.1kbits/s speed=0.0201x elapsed=0:03:19.89    \nframe=  483 fps=2.4 q=49.0 size=       1KiB time=00:00:04.01 bitrate=   1.1kbits/s speed=0.02x elapsed=0:03:20.56    \nframe=  484 fps=2.4 q=48.0 size=       1KiB time=00:00:04.02 bitrate=   1.1kbits/s speed=0.02x elapsed=0:03:21.07    \nframe=  485 fps=2.4 q=50.0 size=       1KiB time=00:00:04.03 bitrate=   1.1kbits/s speed=0.02x elapsed=0:03:21.60    \nframe=  487 fps=2.4 q=49.0 size=       1KiB time=00:00:04.05 bitrate=   1.1kbits/s speed=0.02x elapsed=0:03:22.12    \nframe=  490 fps=2.4 q=48.0 size=       1KiB time=00:00:04.07 bitrate=   1.1kbits/s speed=0.0201x elapsed=0:03:22.64    \nframe=  490 fps=2.4 q=48.0 size=       1KiB time=00:00:04.07 bitrate=   1.1kbits/s speed=0.0201x elapsed=0:03:23.15    \nframe=  491 fps=2.4 q=49.0 size=       1KiB time=00:00:04.08 bitrate=   1.1kbits/s speed=0.02x elapsed=0:03:23.73    \nframe=  492 fps=2.4 q=48.0 size=       1KiB time=00:00:04.09 bitrate=   1.1kbits/s speed=0.02x elapsed=0:03:24.26    \nframe=  496 fps=2.4 q=49.0 size=       1KiB time=00:00:04.12 bitrate=   1.1kbits/s speed=0.0201x elapsed=0:03:24.80    \nframe=  499 fps=2.4 q=49.0 size=       1KiB time=00:00:04.15 bitrate=   1.1kbits/s speed=0.0202x elapsed=0:03:25.41    \nframe=  501 fps=2.4 q=51.0 size=       1KiB time=00:00:04.16 bitrate=   1.1kbits/s speed=0.0202x elapsed=0:03:25.93    \nframe=  502 fps=2.4 q=48.0 size=       1KiB time=00:00:04.17 bitrate=   1.1kbits/s speed=0.0202x elapsed=0:03:26.48    \nframe=  505 fps=2.4 q=49.0 size=       1KiB time=00:00:04.20 bitrate=   1.1kbits/s speed=0.0203x elapsed=0:03:27.07    \nframe=  507 fps=2.4 q=49.0 size=       1KiB time=00:00:04.21 bitrate=   1.1kbits/s speed=0.0203x elapsed=0:03:27.65    \nframe=  509 fps=2.4 q=51.0 size=       1KiB time=00:00:04.21 bitrate=   1.1kbits/s speed=0.0203x elapsed=0:03:28.20    \nframe=  509 fps=2.4 q=51.0 size=       1KiB time=00:00:04.23 bitrate=   1.1kbits/s speed=0.0203x elapsed=0:03:28.82    \nframe=  511 fps=2.4 q=49.0 size=       1KiB time=00:00:04.25 bitrate=   1.1kbits/s speed=0.0203x elapsed=0:03:29.39    \nframe=  513 fps=2.4 q=42.0 size=       1KiB time=00:00:04.26 bitrate=   1.0kbits/s speed=0.0203x elapsed=0:03:29.93    \nframe=  513 fps=2.4 q=42.0 size=       1KiB time=00:00:04.26 bitrate=   1.0kbits/s speed=0.0203x elapsed=0:03:30.46    \nframe=  515 fps=2.4 q=49.0 size=       1KiB time=00:00:04.28 bitrate=   1.0kbits/s speed=0.0203x elapsed=0:03:30.99    \nframe=  517 fps=2.4 q=51.0 size=       1KiB time=00:00:04.30 bitrate=   1.0kbits/s speed=0.0203x elapsed=0:03:31.50    \nframe=  517 fps=2.4 q=51.0 size=       1KiB time=00:00:04.30 bitrate=   1.0kbits/s speed=0.0203x elapsed=0:03:32.03    \nframe=  517 fps=2.4 q=51.0 size=       1KiB time=00:00:04.30 bitrate=   1.0kbits/s speed=0.0202x elapsed=0:03:32.54    \nframe=  521 fps=2.4 q=50.0 size=       1KiB time=00:00:04.33 bitrate=   1.0kbits/s speed=0.0203x elapsed=0:03:33.05    \nframe=  521 fps=2.4 q=50.0 size=       1KiB time=00:00:04.33 bitrate=   1.0kbits/s speed=0.0203x elapsed=0:03:33.59    \nframe=  525 fps=2.5 q=52.0 size=       1KiB time=00:00:04.36 bitrate=   1.0kbits/s speed=0.0204x elapsed=0:03:34.10    \nframe=  527 fps=2.5 q=50.0 size=       1KiB time=00:00:04.38 bitrate=   1.0kbits/s speed=0.0204x elapsed=0:03:34.66    \nframe=  529 fps=2.5 q=42.0 size=       1KiB time=00:00:04.40 bitrate=   1.0kbits/s speed=0.0204x elapsed=0:03:35.20    \nframe=  529 fps=2.5 q=42.0 size=       1KiB time=00:00:04.40 bitrate=   1.0kbits/s speed=0.0204x elapsed=0:03:35.71    \nframe=  529 fps=2.4 q=42.0 size=       1KiB time=00:00:04.40 bitrate=   1.0kbits/s speed=0.0203x elapsed=0:03:36.23    \nframe=  529 fps=2.4 q=42.0 size=       1KiB time=00:00:04.40 bitrate=   1.0kbits/s speed=0.0203x elapsed=0:03:36.74    \nframe=  531 fps=2.4 q=50.0 size=       1KiB time=00:00:04.41 bitrate=   1.0kbits/s speed=0.0203x elapsed=0:03:37.26    \nframe=  533 fps=2.4 q=51.0 size=       1KiB time=00:00:04.43 bitrate=   1.0kbits/s speed=0.0204x elapsed=0:03:37.78    \nframe=  533 fps=2.4 q=51.0 size=       1KiB time=00:00:04.43 bitrate=   1.0kbits/s speed=0.0203x elapsed=0:03:38.30    \nframe=  535 fps=2.4 q=50.0 size=       1KiB time=00:00:04.45 bitrate=   1.0kbits/s speed=0.0203x elapsed=0:03:38.83    \nframe=  537 fps=2.4 q=50.0 size=       1KiB time=00:00:04.46 bitrate=   1.0kbits/s speed=0.0204x elapsed=0:03:39.34    \nframe=  537 fps=2.4 q=50.0 size=       1KiB time=00:00:04.46 bitrate=   1.0kbits/s speed=0.0203x elapsed=0:03:39.86    \nframe=  537 fps=2.4 q=50.0 size=       1KiB time=00:00:04.46 bitrate=   1.0kbits/s speed=0.0203x elapsed=0:03:40.39    \nframe=  537 fps=2.4 q=50.0 size=       1KiB time=00:00:04.46 bitrate=   1.0kbits/s speed=0.0202x elapsed=0:03:40.91    \nframe=  537 fps=2.4 q=50.0 size=       1KiB time=00:00:04.46 bitrate=   1.0kbits/s speed=0.0202x elapsed=0:03:41.44    \nframe=  541 fps=2.4 q=50.0 size=       1KiB time=00:00:04.50 bitrate=   1.0kbits/s speed=0.0203x elapsed=0:03:41.97    \nframe=  541 fps=2.4 q=50.0 size=       1KiB time=00:00:04.50 bitrate=   1.0kbits/s speed=0.0202x elapsed=0:03:42.48    \nframe=  543 fps=2.4 q=49.0 size=       1KiB time=00:00:04.51 bitrate=   1.0kbits/s speed=0.0203x elapsed=0:03:42.99    \nframe=  545 fps=2.4 q=42.0 size=       1KiB time=00:00:04.53 bitrate=   1.0kbits/s speed=0.0203x elapsed=0:03:43.51    \nframe=  545 fps=2.4 q=42.0 size=       1KiB time=00:00:04.53 bitrate=   1.0kbits/s speed=0.0202x elapsed=0:03:44.02    \nframe=  549 fps=2.4 q=50.0 size=       1KiB time=00:00:04.56 bitrate=   1.0kbits/s speed=0.0203x elapsed=0:03:44.54    \nframe=  549 fps=2.4 q=50.0 size=       1KiB time=00:00:04.56 bitrate=   1.0kbits/s speed=0.0203x elapsed=0:03:45.06    \nframe=  553 fps=2.5 q=50.0 size=       1KiB time=00:00:04.60 bitrate=   1.0kbits/s speed=0.0204x elapsed=0:03:45.58    \nframe=  553 fps=2.4 q=50.0 size=       1KiB time=00:00:04.60 bitrate=   1.0kbits/s speed=0.0203x elapsed=0:03:46.10    \nframe=  553 fps=2.4 q=50.0 size=       1KiB time=00:00:04.60 bitrate=   1.0kbits/s speed=0.0203x elapsed=0:03:46.61    \nframe=  553 fps=2.4 q=50.0 size=       1KiB time=00:00:04.60 bitrate=   1.0kbits/s speed=0.0203x elapsed=0:03:47.14    \nframe=  555 fps=2.4 q=49.0 size=       1KiB time=00:00:04.61 bitrate=   1.0kbits/s speed=0.0203x elapsed=0:03:47.66    \nframe=  557 fps=2.4 q=50.0 size=       1KiB time=00:00:04.63 bitrate=   1.0kbits/s speed=0.0203x elapsed=0:03:48.17    \nframe=  559 fps=2.4 q=49.0 size=       1KiB time=00:00:04.65 bitrate=   1.0kbits/s speed=0.0203x elapsed=0:03:48.69    \nframe=  561 fps=2.4 q=41.0 size=       1KiB time=00:00:04.66 bitrate=   1.0kbits/s speed=0.0204x elapsed=0:03:49.22    \nframe=  561 fps=2.4 q=41.0 size=       1KiB time=00:00:04.66 bitrate=   1.0kbits/s speed=0.0203x elapsed=0:03:49.73    \nframe=  563 fps=2.4 q=49.0 size=       1KiB time=00:00:04.68 bitrate=   1.0kbits/s speed=0.0203x elapsed=0:03:50.24    \nframe=  565 fps=2.4 q=51.0 size=       1KiB time=00:00:04.70 bitrate=   1.0kbits/s speed=0.0204x elapsed=0:03:50.76    \nframe=  565 fps=2.4 q=51.0 size=       1KiB time=00:00:04.70 bitrate=   1.0kbits/s speed=0.0203x elapsed=0:03:51.27    \nframe=  565 fps=2.4 q=51.0 size=       1KiB time=00:00:04.70 bitrate=   1.0kbits/s speed=0.0203x elapsed=0:03:51.79    \nframe=  567 fps=2.4 q=49.0 size=       1KiB time=00:00:04.71 bitrate=   0.9kbits/s speed=0.0203x elapsed=0:03:52.30    \nframe=  569 fps=2.4 q=50.0 size=       1KiB time=00:00:04.73 bitrate=   0.9kbits/s speed=0.0203x elapsed=0:03:52.82    \nframe=  569 fps=2.4 q=50.0 size=       1KiB time=00:00:04.73 bitrate=   0.9kbits/s speed=0.0203x elapsed=0:03:53.34    \nframe=  569 fps=2.4 q=50.0 size=       1KiB time=00:00:04.73 bitrate=   0.9kbits/s speed=0.0202x elapsed=0:03:53.86    \nframe=  571 fps=2.4 q=48.0 size=       1KiB time=00:00:04.75 bitrate=   0.9kbits/s speed=0.0203x elapsed=0:03:54.39    \nframe=  573 fps=2.4 q=51.0 size=       1KiB time=00:00:04.76 bitrate=   0.9kbits/s speed=0.0203x elapsed=0:03:54.92    \nframe=  573 fps=2.4 q=51.0 size=       1KiB time=00:00:04.76 bitrate=   0.9kbits/s speed=0.0202x elapsed=0:03:55.43    \nframe=  575 fps=2.4 q=48.0 size=       1KiB time=00:00:04.78 bitrate=   0.9kbits/s speed=0.0203x elapsed=0:03:55.95    \nframe=  577 fps=2.4 q=41.0 size=       1KiB time=00:00:04.80 bitrate=   0.9kbits/s speed=0.0203x elapsed=0:03:56.46    \nframe=  577 fps=2.4 q=41.0 size=       1KiB time=00:00:04.80 bitrate=   0.9kbits/s speed=0.0203x elapsed=0:03:56.98    \nframe=  577 fps=2.4 q=41.0 size=       1KiB time=00:00:04.80 bitrate=   0.9kbits/s speed=0.0202x elapsed=0:03:57.49    \nframe=  579 fps=2.4 q=49.0 size=       1KiB time=00:00:04.81 bitrate=   0.9kbits/s speed=0.0202x elapsed=0:03:58.00    \nframe=  581 fps=2.4 q=52.0 size=       1KiB time=00:00:04.83 bitrate=   0.9kbits/s speed=0.0203x elapsed=0:03:58.52    \nframe=  581 fps=2.4 q=52.0 size=       1KiB time=00:00:04.83 bitrate=   0.9kbits/s speed=0.0202x elapsed=0:03:59.04    \nframe=  581 fps=2.4 q=52.0 size=       1KiB time=00:00:04.83 bitrate=   0.9kbits/s speed=0.0202x elapsed=0:03:59.55    \nframe=  583 fps=2.4 q=49.0 size=       1KiB time=00:00:04.85 bitrate=   0.9kbits/s speed=0.0202x elapsed=0:04:00.07    \nframe=  583 fps=2.4 q=49.0 size=       1KiB time=00:00:04.85 bitrate=   0.9kbits/s speed=0.0202x elapsed=0:04:00.58    \nframe=  585 fps=2.4 q=50.0 size=       1KiB time=00:00:04.86 bitrate=   0.9kbits/s speed=0.0202x elapsed=0:04:01.10    \nframe=  585 fps=2.4 q=50.0 size=       1KiB time=00:00:04.86 bitrate=   0.9kbits/s speed=0.0201x elapsed=0:04:01.62    \nframe=  585 fps=2.4 q=50.0 size=       1KiB time=00:00:04.86 bitrate=   0.9kbits/s speed=0.0201x elapsed=0:04:02.14    \nframe=  587 fps=2.4 q=49.0 size=       1KiB time=00:00:04.88 bitrate=   0.9kbits/s speed=0.0201x elapsed=0:04:02.68    \nframe=  589 fps=2.4 q=52.0 size=       1KiB time=00:00:04.90 bitrate=   0.9kbits/s speed=0.0201x elapsed=0:04:03.20    \nframe=  591 fps=2.4 q=49.0 size=       1KiB time=00:00:04.91 bitrate=   0.9kbits/s speed=0.0202x elapsed=0:04:03.71    \n[out#0/matroska @ 000001eaad2a90c0] video:612KiB audio:0KiB subtitle:0KiB other streams:0KiB global headers:0KiB muxing overhead: 0.519804%\nframe=  600 fps=2.5 q=59.0 Lsize=     615KiB time=00:00:04.99 bitrate=1009.1kbits/s speed=0.0205x elapsed=0:04:03.84    \n",
  "seconds": 244.6843762397766,
  "probe_out": {}
}